<svg width="454" height="422" viewBox="0 0 454 422" fill="none" xmlns="http://www.w3.org/2000/svg">
<path d="M226.657 421.335C351.836 421.335 453.314 365.183 453.314 295.915C453.314 226.648 351.836 170.496 226.657 170.496C101.478 170.496 0 226.648 0 295.915C0 365.183 101.478 421.335 226.657 421.335Z" fill="#F0F0F0"/>
<path d="M54.5261 340.577L15.4304 318.947C13.2275 317.73 13.2275 315.748 15.4304 314.531L242.838 188.696C244.074 188.096 245.44 187.783 246.825 187.783C248.211 187.783 249.577 188.096 250.813 188.696L289.918 210.326C292.121 211.543 292.121 213.525 289.918 214.742L62.5107 340.577C61.2731 341.177 59.9055 341.49 58.5184 341.49C57.1313 341.49 55.7637 341.177 54.5261 340.577Z" fill="#E0E0E0"/>
<path d="M195.055 302.019L228.667 283.395C232.131 281.477 233.862 278.969 233.862 276.452C233.862 273.935 233.862 271.971 233.862 271.971L198.999 253.125C198.025 252.522 197.214 251.706 196.633 250.744C196.051 249.783 195.715 248.703 195.651 247.593V207.864L136.969 240.374V280.085C137.037 281.193 137.375 282.272 137.957 283.232C138.538 284.193 139.347 285.01 140.317 285.617L169.985 301.991C176.892 305.854 188.129 305.854 195.055 302.019Z" fill="#BA68C8"/>
<g opacity="0.6">
<path d="M195.055 302.019L228.667 283.395C232.131 281.477 233.862 278.969 233.862 276.452C233.862 273.935 233.862 271.971 233.862 271.971L198.999 253.125C198.025 252.522 197.214 251.706 196.633 250.744C196.051 249.783 195.715 248.703 195.651 247.593V207.864L136.969 240.374V280.085C137.037 281.193 137.375 282.272 137.957 283.232C138.538 284.193 139.347 285.01 140.317 285.617L169.985 301.991C176.892 305.854 188.129 305.854 195.055 302.019Z" fill="black"/>
</g>
<path opacity="0.3" d="M151.044 287.119V291.582L140.288 285.635C139.318 285.029 138.51 284.212 137.93 283.251C137.35 282.29 137.015 281.212 136.95 280.103V240.374L148.129 234.187C148.36 236.907 148.61 239.719 148.85 242.485L140.991 246.819V277.844C141.053 278.954 141.389 280.034 141.971 280.996C142.553 281.957 143.364 282.773 144.338 283.376L151.044 287.119Z" fill="black"/>
<path d="M140.991 277.853C141.057 278.962 141.394 280.041 141.976 281.002C142.557 281.963 143.367 282.78 144.338 283.385L169.947 297.529C176.873 301.355 188.109 301.364 195.046 297.529L228.716 278.904C235.652 275.069 235.652 268.855 228.716 265.019L203.088 250.876C202.118 250.268 201.311 249.451 200.732 248.491C200.152 247.53 199.815 246.452 199.75 245.344V214.309L141.068 246.819L140.991 277.853Z" fill="#BA68C8"/>
<path opacity="0.3" d="M140.991 277.853C141.057 278.962 141.394 280.041 141.976 281.002C142.557 281.963 143.367 282.78 144.338 283.385L169.947 297.529C176.873 301.355 188.109 301.364 195.046 297.529L228.716 278.904C235.652 275.069 235.652 268.855 228.716 265.019L203.088 250.876C202.118 250.268 201.311 249.451 200.732 248.491C200.152 247.53 199.815 246.452 199.75 245.344V214.309L141.068 246.819L140.991 277.853Z" fill="black"/>
<path opacity="0.5" d="M209.87 254.665L203.049 250.894C202.08 250.287 201.273 249.47 200.693 248.509C200.113 247.548 199.777 246.47 199.711 245.362V214.309L141.029 246.819V277.853C141.095 278.962 141.433 280.041 142.014 281.002C142.596 281.963 143.405 282.78 144.377 283.385L151.111 287.073L209.87 254.665Z" fill="black"/>
<path d="M233.872 271.98V276.461C233.872 278.978 232.131 281.477 228.677 283.404L195.007 302.019C191.322 303.904 187.207 304.883 183.03 304.868V300.405C187.207 300.42 191.322 299.442 195.007 297.556L228.677 278.923C232.131 277.014 233.872 274.497 233.872 271.98Z" fill="#BA68C8"/>
<path opacity="0.5" d="M233.872 271.98V276.461C233.872 278.978 232.131 281.477 228.677 283.404L195.007 302.019C191.322 303.904 187.207 304.883 183.03 304.868V300.405C187.207 300.42 191.322 299.442 195.007 297.556L228.677 278.923C232.131 277.014 233.872 274.497 233.872 271.98Z" fill="black"/>
<path d="M46.7147 316.421C47.9833 317.008 49.3781 317.301 50.7867 317.277C52.1953 317.253 53.5784 316.912 54.8244 316.282L281.856 190.66C283.074 189.899 284.087 188.874 284.814 187.668C285.541 186.461 285.961 185.108 286.041 183.717V7.68889C285.998 6.33574 285.621 5.01158 284.942 3.82431C284.264 2.63705 283.302 1.62028 282.135 0.856872C280.868 0.268963 279.474 -0.0240853 278.067 0.00154791C276.659 0.0271811 275.278 0.370773 274.035 1.00439L47.0033 126.664C45.7902 127.43 44.7831 128.459 44.0642 129.669C43.3454 130.879 42.935 132.234 42.8667 133.625V309.625C42.9096 310.967 43.28 312.281 43.9483 313.461C44.6165 314.641 45.564 315.655 46.7147 316.421Z" fill="#BA68C8"/>
<path d="M54.8533 316.273L281.885 190.651C283.104 189.891 284.119 188.866 284.846 187.66C285.573 186.453 285.993 185.099 286.07 183.708V7.68889C286.07 5.13495 284.194 4.09309 281.885 5.37467L54.8533 130.997C53.6354 131.758 52.6218 132.783 51.8947 133.989C51.1676 135.195 50.7475 136.549 50.6686 137.94V313.959C50.6686 316.513 52.5445 317.555 54.8533 316.273Z" fill="#BA68C8"/>
<path opacity="0.5" d="M54.8533 316.273L281.885 190.651C283.104 189.891 284.119 188.866 284.846 187.66C285.573 186.453 285.993 185.099 286.07 183.708V7.68889C286.07 5.13495 284.194 4.09309 281.885 5.37467L54.8533 130.997C53.6354 131.758 52.6218 132.783 51.8947 133.989C51.1676 135.195 50.7475 136.549 50.6686 137.94V313.959C50.6686 316.513 52.5445 317.555 54.8533 316.273Z" fill="black"/>
<path d="M54.2375 320.846C53.047 321.344 51.758 321.589 50.4592 321.564C49.1605 321.538 47.883 321.243 46.7147 320.699C45.5614 319.931 44.6124 318.915 43.944 317.731C43.2756 316.548 42.9066 315.23 42.8667 313.885V297.861L50.707 302.213V318.237C50.6589 320.57 52.2077 321.63 54.2375 320.846Z" fill="#BA68C8"/>
<path opacity="0.5" d="M54.2375 320.846C53.047 321.344 51.758 321.589 50.4592 321.564C49.1605 321.538 47.883 321.243 46.7147 320.699C45.5614 319.931 44.6124 318.915 43.944 317.731C43.2756 316.548 42.9066 315.23 42.8667 313.885V297.861L50.707 302.213V318.237C50.6589 320.57 52.2077 321.63 54.2375 320.846Z" fill="black"/>
<path d="M50.6589 302.213V318.237C50.6589 320.791 52.5829 321.824 54.8436 320.551L281.876 194.929C283.088 194.171 284.098 193.152 284.825 191.953C285.552 190.753 285.975 189.407 286.06 188.023V171.925L50.6589 302.213Z" fill="#BA68C8"/>
<path opacity="0.3" d="M50.6686 302.176V318.237C50.6686 320.791 52.5926 321.824 54.8533 320.551L281.885 194.929C283.096 194.17 284.104 193.151 284.829 191.951C285.554 190.752 285.976 189.407 286.06 188.023V171.925L50.6686 302.176Z" fill="black"/>
<path d="M58.5088 282.067V140.438C58.5536 139.604 58.8035 138.792 59.2381 138.067C59.6728 137.343 60.2799 136.728 61.01 136.271L275.671 17.4529C277.056 16.6876 278.181 17.3053 278.181 18.8359V160.538C278.135 161.373 277.883 162.186 277.447 162.91C277.011 163.634 276.402 164.249 275.671 164.705L61.0196 283.496C59.6343 284.261 58.5088 283.634 58.5088 282.067Z" fill="#BA68C8"/>
<path d="M58.5088 282.067V140.438C58.5536 139.604 58.8035 138.792 59.2381 138.067C59.6728 137.343 60.2799 136.728 61.01 136.271L275.671 17.4529C277.056 16.6876 278.181 17.3053 278.181 18.8359V160.538C278.135 161.373 277.883 162.186 277.447 162.91C277.011 163.634 276.402 164.249 275.671 164.705L61.0196 283.496C59.6343 284.261 58.5088 283.634 58.5088 282.067Z" fill="#263238"/>
<path d="M168.36 242.172C167.217 242.884 166.266 243.845 165.584 244.976C164.902 246.107 164.508 247.377 164.435 248.681C164.435 251.078 166.195 252.056 168.36 250.857C169.503 250.144 170.455 249.182 171.137 248.049C171.82 246.916 172.213 245.645 172.284 244.339C172.284 241.941 170.524 240.973 168.36 242.172Z" fill="#BA68C8"/>
<path opacity="0.7" d="M51.8999 133.975C51.1543 135.176 50.7282 136.535 50.6589 137.931V302.213L42.8667 297.861V133.625C42.9172 132.224 43.3411 130.859 44.0981 129.66L51.8999 133.975Z" fill="black"/>
<path opacity="0.3" d="M286.022 7.02504C285.724 4.95976 283.982 4.25905 281.876 5.37467L54.8435 130.997C53.6126 131.735 52.5966 132.76 51.8902 133.975L44.0403 129.633C44.7514 128.417 45.7704 127.393 47.0032 126.655L274.035 1.04127C275.28 0.40756 276.663 0.0639522 278.072 0.0383212C279.481 0.0126902 280.876 0.305758 282.145 0.893747C283.211 1.59019 284.109 2.49799 284.778 3.55577C285.447 4.61355 285.871 5.79664 286.022 7.02504Z" fill="black"/>
<path d="M298.268 28.6921C297.931 28.5299 297.554 28.4588 297.178 28.4864C296.801 28.514 296.44 28.6393 296.132 28.8488L81.9142 147.455C81.069 147.991 80.3672 148.71 79.8658 149.554C79.3645 150.398 79.0775 151.344 79.0282 152.314V293.076C78.9982 293.551 79.0967 294.025 79.3141 294.453C79.5315 294.881 79.8605 295.248 80.2692 295.519C80.7406 295.768 83.261 297.169 84.0114 297.557C84.2769 297.686 84.5735 297.746 84.8709 297.73C85.1684 297.713 85.456 297.622 85.7045 297.464L299.875 178.858C300.72 178.322 301.422 177.603 301.923 176.759C302.424 175.915 302.711 174.969 302.761 173.999V32.5092C302.804 32.1516 302.742 31.7897 302.582 31.4639C302.422 31.1382 302.171 30.8616 301.856 30.6652C301.375 30.3609 298.807 28.9963 298.268 28.6921Z" fill="#BA68C8"/>
<path d="M85.6564 149.446L299.884 30.8864C301.5 29.9644 302.77 30.7205 302.77 32.5092V173.999C302.721 174.969 302.434 175.915 301.933 176.759C301.431 177.603 300.729 178.322 299.884 178.858L85.6564 297.464C84.0402 298.386 82.7704 296.902 82.7704 295.113V154.305C82.8212 153.335 83.1088 152.391 83.61 151.547C84.1113 150.703 84.8122 149.983 85.6564 149.446Z" fill="#FAFAFA"/>
<path d="M301.192 31.4212C301.76 31.4212 301.847 32.1035 301.847 32.5092V173.999C301.795 174.812 301.546 175.601 301.12 176.306C300.694 177.01 300.103 177.609 299.394 178.056L85.1946 296.662C85.0509 296.752 84.8848 296.802 84.7136 296.81C84.1749 296.81 83.7516 296.017 83.7516 295.113V154.305C83.798 153.493 84.0392 152.702 84.4563 151.994C84.8734 151.286 85.4552 150.679 86.1566 150.221L300.365 31.6794C300.613 31.5261 300.898 31.4371 301.192 31.4212ZM301.192 30.4992C300.729 30.5181 300.278 30.6515 299.884 30.8864L85.6564 149.446C84.8122 149.983 84.1113 150.703 83.61 151.547C83.1088 152.391 82.8212 153.336 82.7704 154.305V295.113C82.7704 296.533 83.5977 297.732 84.6944 297.732C85.0341 297.726 85.366 297.633 85.6564 297.464L299.875 178.858C300.72 178.322 301.422 177.603 301.923 176.759C302.424 175.915 302.711 174.969 302.761 173.999V32.5092C302.761 31.2368 302.106 30.4992 301.144 30.4992H301.192Z" fill="#E0E0E0"/>
<path d="M80.2115 295.519C80.529 295.676 82.8089 296.92 83.8094 297.474C83.4501 297.188 83.1656 296.826 82.9785 296.416C82.7914 296.006 82.707 295.56 82.732 295.113V163.498L78.9802 161.396V293.076C78.9491 293.55 79.0461 294.024 79.2618 294.452C79.4774 294.88 79.8045 295.247 80.2115 295.519Z" fill="#F0F0F0"/>
<path d="M302.809 32.4815C302.809 30.7113 301.491 29.9921 299.923 30.8864L85.6564 149.446C84.8122 149.983 84.1113 150.703 83.61 151.547C83.1088 152.391 82.8212 153.335 82.7704 154.305V163.525L302.809 41.7015V32.4815Z" fill="#BA68C8"/>
<g opacity="0.4">
<path d="M299.884 30.8864L85.6564 149.437C84.7966 149.957 84.0883 150.677 83.5977 151.53L79.8748 149.456C80.3645 148.632 81.0668 147.943 81.9142 147.455L296.132 28.8488C296.439 28.6378 296.8 28.5109 297.176 28.4817C297.552 28.4524 297.93 28.522 298.268 28.6829C298.787 28.9963 301.221 30.3148 301.847 30.6375C301.523 30.5225 301.175 30.4851 300.833 30.5285C300.491 30.5719 300.165 30.6948 299.884 30.8864Z" fill="white"/>
</g>
<path opacity="0.15" d="M78.9802 161.405V152.268C79.0197 151.272 79.328 150.303 79.8749 149.456L83.6074 151.521C83.0684 152.354 82.7665 153.307 82.732 154.287V163.507L78.9802 161.405Z" fill="black"/>
<path d="M257.633 138.622L129.331 209.616C128.707 210.004 128.188 210.528 127.815 211.145C127.442 211.762 127.227 212.454 127.186 213.166V248.423C127.227 249.135 127.442 249.827 127.815 250.444C128.188 251.061 128.707 251.585 129.331 251.973L133.073 254.038C133.738 254.361 134.473 254.529 135.219 254.529C135.964 254.529 136.699 254.361 137.364 254.038L265.647 183.044C266.271 182.654 266.79 182.129 267.163 181.51C267.536 180.892 267.751 180.198 267.792 179.485V144.219C267.751 143.507 267.536 142.814 267.163 142.198C266.79 141.581 266.27 141.057 265.647 140.669L261.895 138.604C261.233 138.286 260.502 138.123 259.762 138.126C259.021 138.129 258.292 138.299 257.633 138.622Z" fill="#BA68C8"/>
<path opacity="0.5" d="M267.792 143.905C267.638 142.845 266.743 142.458 265.666 143.057L137.364 214.051C136.731 214.428 136.211 214.955 135.854 215.581L127.821 211.137C128.181 210.521 128.697 210.001 129.322 209.625L257.633 138.631C258.296 138.308 259.03 138.14 259.774 138.14C260.518 138.14 261.251 138.308 261.914 138.631L265.666 140.697C266.238 141.056 266.723 141.528 267.09 142.081C267.457 142.634 267.696 143.256 267.792 143.905Z" fill="white"/>
<path d="M136.998 254.213C136.37 254.451 135.697 254.558 135.022 254.53C134.348 254.501 133.687 254.337 133.083 254.047L129.331 251.982C128.708 251.593 128.19 251.069 127.817 250.452C127.444 249.836 127.228 249.144 127.186 248.432V213.175C127.215 212.455 127.433 211.754 127.821 211.137L135.854 215.581C135.463 216.191 135.244 216.886 135.219 217.601V252.867C135.219 254.038 135.988 254.582 136.998 254.213Z" fill="#263238"/>
<path d="M137.364 214.051L265.666 143.057C266.849 142.402 267.811 142.928 267.811 144.237V179.504C267.77 180.217 267.555 180.91 267.182 181.529C266.809 182.147 266.29 182.673 265.666 183.063L137.383 254.057C136.2 254.711 135.238 254.176 135.238 252.867V217.61C135.277 216.898 135.489 216.206 135.858 215.588C136.228 214.969 136.743 214.443 137.364 214.051Z" fill="#BA68C8"/>
<path d="M223.617 157.449L129.341 209.625C128.716 210.001 128.2 210.521 127.84 211.137L135.873 215.581C136.23 214.955 136.75 214.428 137.383 214.051L231.659 161.884L223.617 157.449Z" fill="#455A64"/>
<path d="M231.64 161.884L137.364 214.051C136.74 214.441 136.22 214.966 135.848 215.585C135.475 216.203 135.259 216.897 135.219 217.61V252.858C135.219 254.167 136.181 254.702 137.364 254.047L231.64 201.881V161.884Z" fill="#37474F"/>
<path d="M159.105 209.754L207.754 182.841C209.764 181.726 211.4 182.519 211.4 184.611C211.31 185.787 210.932 186.926 210.297 187.935C209.661 188.944 208.787 189.796 207.744 190.42L159.105 217.342C157.095 218.458 155.45 217.665 155.45 215.572C155.54 214.396 155.918 213.256 156.553 212.246C157.189 211.235 158.063 210.382 159.105 209.754Z" fill="#BA68C8"/>
<path d="M169.071 218.67C169.081 218.66 169.092 218.653 169.104 218.647C169.117 218.642 169.13 218.639 169.144 218.639C169.157 218.639 169.171 218.642 169.183 218.647C169.196 218.653 169.207 218.66 169.216 218.67C169.259 218.733 169.279 218.807 169.274 218.882V224.128C169.274 224.635 169.229 225.141 169.139 225.64C169.059 226.097 168.924 226.542 168.735 226.968C168.562 227.358 168.336 227.724 168.061 228.056C167.791 228.364 167.465 228.623 167.099 228.821C166.813 229 166.479 229.096 166.137 229.098C166.007 229.088 165.88 229.053 165.764 228.994C165.648 228.935 165.546 228.855 165.464 228.757C165.253 228.486 165.114 228.169 165.06 227.835C164.968 227.389 164.926 226.934 164.935 226.48V221.224C164.935 221.132 164.954 221.041 164.993 220.957C165.016 220.881 165.067 220.815 165.137 220.772L165.743 220.431C165.763 220.414 165.788 220.404 165.815 220.404C165.842 220.404 165.868 220.414 165.887 220.431C165.932 220.493 165.952 220.568 165.945 220.643V225.825C165.938 226.11 165.967 226.395 166.032 226.673C166.058 226.851 166.138 227.018 166.262 227.153C166.306 227.202 166.36 227.241 166.422 227.267C166.484 227.292 166.551 227.304 166.618 227.3C166.783 227.29 166.942 227.239 167.08 227.153C167.251 227.055 167.407 226.933 167.542 226.793C167.692 226.627 167.815 226.441 167.907 226.24C168.016 226.003 168.097 225.756 168.148 225.502C168.204 225.198 168.23 224.889 168.225 224.58V219.389C168.228 219.297 168.251 219.206 168.292 219.122C168.316 219.046 168.367 218.981 168.437 218.938L169.071 218.67Z" fill="#FAFAFA"/>
<path d="M172.842 223.631C172.847 223.563 172.831 223.495 172.794 223.437C172.772 223.413 172.743 223.395 172.711 223.383C172.679 223.372 172.645 223.368 172.612 223.372C172.494 223.357 172.374 223.357 172.256 223.372L171.698 223.474C171.518 223.517 171.329 223.517 171.149 223.474C171.008 223.43 170.886 223.343 170.803 223.225C170.709 223.075 170.647 222.909 170.62 222.736C170.526 222.242 170.526 221.736 170.62 221.243C170.692 220.959 170.796 220.684 170.928 220.422C171.06 220.16 171.221 219.913 171.409 219.684C171.591 219.467 171.813 219.282 172.063 219.14C172.266 219.022 172.492 218.947 172.727 218.919C172.898 218.902 173.07 218.938 173.218 219.021C173.359 219.103 173.47 219.225 173.535 219.371C173.613 219.543 173.655 219.728 173.66 219.915C173.67 220.008 173.65 220.101 173.602 220.182C173.579 220.258 173.528 220.324 173.458 220.367L172.881 220.689C172.855 220.704 172.825 220.712 172.794 220.712C172.764 220.712 172.734 220.704 172.708 220.689L172.583 220.597C172.533 220.56 172.473 220.537 172.41 220.533C172.286 220.546 172.167 220.587 172.063 220.652C171.912 220.74 171.779 220.852 171.669 220.984C171.552 221.13 171.491 221.308 171.496 221.491C171.482 221.562 171.482 221.633 171.496 221.704C171.514 221.73 171.538 221.751 171.567 221.767C171.595 221.783 171.627 221.793 171.659 221.796C171.764 221.813 171.872 221.813 171.977 221.796L172.515 221.704C172.968 221.621 173.275 221.704 173.477 221.943C173.69 222.285 173.787 222.681 173.756 223.077C173.754 223.351 173.715 223.624 173.641 223.889C173.565 224.176 173.455 224.455 173.314 224.718C173.173 224.991 172.995 225.246 172.785 225.475C172.585 225.699 172.348 225.889 172.083 226.037C171.871 226.167 171.63 226.246 171.38 226.267C171.199 226.274 171.021 226.225 170.87 226.129C170.722 226.032 170.608 225.894 170.543 225.733C170.466 225.558 170.426 225.37 170.428 225.179C170.419 225.084 170.439 224.988 170.486 224.903C170.509 224.827 170.56 224.761 170.63 224.718L171.207 224.396C171.284 224.396 171.342 224.35 171.38 224.396L171.505 224.525C171.531 224.552 171.562 224.575 171.597 224.591C171.631 224.606 171.669 224.615 171.707 224.617C171.843 224.618 171.975 224.576 172.083 224.497C172.256 224.403 172.412 224.281 172.544 224.138C172.61 224.062 172.665 223.978 172.708 223.889C172.776 223.816 172.822 223.726 172.842 223.631Z" fill="#FAFAFA"/>
<path d="M174.805 221.132C174.803 220.653 174.845 220.175 174.93 219.703C175.01 219.259 175.136 218.823 175.305 218.403C175.447 218.026 175.641 217.669 175.882 217.342C176.084 217.062 176.347 216.826 176.652 216.651C176.875 216.507 177.147 216.451 177.412 216.494C177.647 216.546 177.853 216.681 177.989 216.872C178.17 217.122 178.298 217.404 178.364 217.702C178.457 218.089 178.502 218.485 178.499 218.882V219.454C178.502 219.55 178.479 219.645 178.432 219.73C178.408 219.806 178.357 219.872 178.287 219.915L175.786 221.307C175.78 221.469 175.803 221.631 175.854 221.787C175.891 221.891 175.957 221.983 176.046 222.054C176.125 222.114 176.224 222.144 176.325 222.137C176.441 222.124 176.553 222.086 176.652 222.026C176.798 221.951 176.928 221.851 177.037 221.731C177.135 221.625 177.219 221.507 177.287 221.381C177.328 221.308 177.373 221.237 177.422 221.169C177.463 221.122 177.512 221.081 177.566 221.049L178.162 220.717C178.183 220.701 178.208 220.693 178.235 220.693C178.261 220.693 178.286 220.701 178.307 220.717C178.332 220.746 178.35 220.78 178.36 220.817C178.37 220.854 178.372 220.892 178.364 220.929C178.354 221.109 178.315 221.286 178.249 221.455C178.166 221.71 178.056 221.957 177.922 222.192C177.771 222.462 177.591 222.716 177.383 222.948C177.176 223.186 176.929 223.388 176.652 223.548C176.425 223.69 176.152 223.752 175.882 223.723C175.646 223.668 175.44 223.53 175.305 223.335C175.116 223.056 174.988 222.742 174.93 222.413C174.843 221.992 174.801 221.562 174.805 221.132ZM176.652 218.191C176.504 218.267 176.376 218.374 176.277 218.504C176.17 218.633 176.083 218.776 176.017 218.928C175.95 219.081 175.895 219.238 175.854 219.399C175.82 219.544 175.797 219.692 175.786 219.841L177.479 218.919C177.47 218.792 177.45 218.666 177.422 218.541C177.407 218.43 177.36 218.324 177.287 218.237C177.258 218.197 177.221 218.163 177.178 218.138C177.135 218.113 177.087 218.096 177.037 218.089C176.9 218.078 176.764 218.114 176.652 218.191Z" fill="#FAFAFA"/>
<path d="M181.52 215.618C181.228 215.778 180.999 216.024 180.866 216.319C180.716 216.708 180.647 217.122 180.664 217.536V220.865C180.665 220.96 180.645 221.054 180.606 221.141C180.582 221.217 180.531 221.283 180.462 221.326L179.894 221.639C179.885 221.649 179.874 221.657 179.861 221.662C179.849 221.667 179.835 221.67 179.822 221.67C179.808 221.67 179.795 221.667 179.782 221.662C179.77 221.657 179.759 221.649 179.75 221.639C179.707 221.576 179.686 221.502 179.692 221.427V215.462C179.692 215.367 179.712 215.273 179.75 215.185C179.777 215.111 179.827 215.046 179.894 215.001L180.462 214.687C180.481 214.67 180.507 214.66 180.534 214.66C180.56 214.66 180.586 214.67 180.606 214.687C180.65 214.746 180.671 214.818 180.664 214.89V215.185C180.778 214.938 180.92 214.703 181.087 214.484C181.239 214.282 181.436 214.115 181.664 213.996L182.01 213.802C182.028 213.785 182.053 213.776 182.078 213.776C182.103 213.776 182.127 213.785 182.145 213.802C182.192 213.864 182.215 213.938 182.212 214.014V214.853C182.211 214.949 182.188 215.043 182.145 215.13C182.121 215.203 182.074 215.267 182.01 215.314L181.52 215.618Z" fill="#FAFAFA"/>
<path d="M188.696 215.176C188.705 215.166 188.716 215.158 188.729 215.153C188.741 215.147 188.755 215.145 188.768 215.145C188.782 215.145 188.796 215.147 188.808 215.153C188.82 215.158 188.832 215.166 188.841 215.176C188.884 215.238 188.904 215.313 188.898 215.388V216.31C188.898 216.405 188.878 216.499 188.841 216.586C188.807 216.655 188.758 216.715 188.696 216.762L185.406 218.606C185.387 218.623 185.361 218.633 185.334 218.633C185.307 218.633 185.281 218.623 185.262 218.606C185.219 218.546 185.198 218.475 185.204 218.403V210.105C185.205 210.01 185.224 209.916 185.262 209.828C185.289 209.756 185.339 209.695 185.406 209.653L186.012 209.312C186.032 209.294 186.058 209.285 186.084 209.285C186.111 209.285 186.137 209.294 186.157 209.312C186.2 209.371 186.22 209.443 186.214 209.515V216.531L188.696 215.176Z" fill="#FAFAFA"/>
<path d="M191.65 208.353C191.866 208.209 192.128 208.141 192.39 208.159C192.616 208.176 192.826 208.275 192.977 208.436C193.156 208.633 193.288 208.866 193.362 209.118C193.465 209.445 193.523 209.782 193.535 210.123C193.535 210.197 193.535 210.298 193.535 210.418V211.128C193.535 211.239 193.535 211.34 193.535 211.423C193.516 211.824 193.458 212.222 193.362 212.613C193.273 212.993 193.144 213.364 192.977 213.719C192.825 214.05 192.627 214.36 192.39 214.641C192.187 214.896 191.936 215.112 191.65 215.277C191.427 215.416 191.164 215.484 190.899 215.471C190.677 215.452 190.471 215.354 190.322 215.194C190.138 215.004 190.005 214.773 189.937 214.521C189.834 214.195 189.776 213.857 189.764 213.516C189.764 213.442 189.764 213.35 189.764 213.23V212.52C189.764 212.401 189.764 212.299 189.764 212.225C189.775 211.822 189.83 211.42 189.928 211.027C190.021 210.644 190.153 210.27 190.322 209.911C190.475 209.583 190.669 209.273 190.899 208.989C191.103 208.732 191.358 208.516 191.65 208.353ZM192.554 210.732C192.553 210.528 192.518 210.325 192.448 210.132C192.412 210.015 192.338 209.912 192.236 209.837C192.154 209.785 192.055 209.762 191.957 209.773C191.847 209.793 191.743 209.833 191.65 209.893C191.537 209.952 191.433 210.027 191.342 210.114C191.231 210.224 191.138 210.348 191.063 210.483C190.966 210.651 190.895 210.831 190.851 211.018C190.788 211.253 190.749 211.494 190.736 211.737C190.736 211.811 190.736 211.893 190.736 211.995V212.65C190.736 212.751 190.736 212.834 190.736 212.889C190.745 213.093 190.783 213.295 190.851 213.489C190.886 213.606 190.961 213.71 191.063 213.784C191.103 213.811 191.148 213.83 191.196 213.839C191.244 213.849 191.294 213.849 191.342 213.839C191.451 213.821 191.555 213.784 191.65 213.728C191.761 213.667 191.864 213.592 191.957 213.507C192.065 213.395 192.158 213.271 192.236 213.138C192.329 212.969 192.4 212.789 192.448 212.603C192.511 212.368 192.546 212.127 192.554 211.884C192.56 211.798 192.56 211.712 192.554 211.626V210.981C192.559 210.898 192.559 210.815 192.554 210.732Z" fill="#FAFAFA"/>
<path d="M196.479 213.747C196.602 213.675 196.712 213.584 196.806 213.479C196.922 213.349 197.022 213.207 197.104 213.055C197.2 212.87 197.274 212.675 197.325 212.474C197.385 212.248 197.414 212.016 197.412 211.783V211.313C197.412 211.405 197.316 211.515 197.248 211.645C197.182 211.779 197.105 211.909 197.018 212.032C196.917 212.161 196.808 212.285 196.69 212.401C196.57 212.522 196.43 212.624 196.277 212.705C196.178 212.769 196.066 212.814 195.949 212.836C195.832 212.859 195.711 212.858 195.594 212.834C195.38 212.77 195.196 212.636 195.074 212.456C194.917 212.218 194.804 211.956 194.738 211.681C194.656 211.333 194.61 210.978 194.603 210.621C194.603 210.501 194.603 210.354 194.603 210.179C194.603 210.003 194.603 209.856 194.603 209.727C194.615 209.321 194.66 208.918 194.738 208.519C194.817 208.127 194.929 207.741 195.074 207.366C195.21 207.041 195.385 206.732 195.594 206.444C195.771 206.19 196.004 205.976 196.277 205.818C196.405 205.744 196.544 205.691 196.69 205.661C196.799 205.642 196.909 205.642 197.018 205.661C197.103 205.684 197.182 205.725 197.248 205.781C197.31 205.826 197.365 205.878 197.412 205.937V205.642C197.412 205.547 197.432 205.454 197.47 205.366C197.497 205.294 197.547 205.232 197.614 205.191L198.182 204.868C198.201 204.85 198.227 204.841 198.254 204.841C198.28 204.841 198.306 204.85 198.326 204.868C198.372 204.929 198.396 205.004 198.393 205.08V211.073C198.419 211.971 198.245 212.863 197.883 213.691C197.599 214.343 197.108 214.891 196.479 215.259C196.264 215.386 196.019 215.459 195.767 215.471C195.567 215.482 195.369 215.434 195.199 215.333C195.037 215.216 194.905 215.064 194.815 214.89C194.721 214.68 194.669 214.455 194.661 214.226C194.652 214.131 194.672 214.034 194.718 213.95C194.742 213.874 194.793 213.808 194.863 213.765L195.373 213.489C195.384 213.477 195.398 213.467 195.414 213.46C195.43 213.454 195.447 213.45 195.464 213.45C195.481 213.45 195.498 213.454 195.514 213.46C195.529 213.467 195.544 213.477 195.555 213.489C195.603 213.536 195.645 213.589 195.68 213.645C195.739 213.744 195.836 213.817 195.95 213.848C196.065 213.931 196.238 213.839 196.479 213.747ZM195.575 209.275C195.575 209.521 195.575 209.761 195.575 209.994C195.547 210.362 195.656 210.728 195.882 211.027C195.968 211.098 196.077 211.136 196.19 211.136C196.303 211.136 196.412 211.098 196.498 211.027C196.777 210.853 196.995 210.602 197.123 210.308C197.299 209.923 197.396 209.51 197.412 209.091C197.412 208.952 197.412 208.786 197.412 208.593C197.412 208.399 197.412 208.233 197.412 208.113C197.432 207.783 197.329 207.457 197.123 207.191C197.038 207.116 196.927 207.074 196.811 207.074C196.695 207.074 196.583 207.116 196.498 207.191C196.224 207.365 196.01 207.612 195.882 207.901C195.685 208.335 195.58 208.802 195.575 209.275Z" fill="#FAFAFA"/>
<path d="M200.635 201.088C200.654 201.073 200.677 201.064 200.702 201.064C200.727 201.064 200.75 201.073 200.769 201.088C200.82 201.147 200.844 201.223 200.837 201.3V202.305C200.837 202.401 200.814 202.495 200.769 202.581C200.742 202.651 200.696 202.711 200.635 202.756L199.99 203.116C199.981 203.126 199.97 203.134 199.958 203.139C199.945 203.144 199.932 203.147 199.918 203.147C199.904 203.147 199.891 203.144 199.878 203.139C199.866 203.134 199.855 203.126 199.846 203.116C199.821 203.088 199.802 203.056 199.79 203.021C199.779 202.986 199.775 202.95 199.779 202.913V201.908C199.778 201.812 199.801 201.717 199.846 201.632C199.873 201.56 199.923 201.498 199.99 201.456L200.635 201.088ZM200.798 209.745C200.799 209.837 200.779 209.928 200.741 210.013C200.71 210.085 200.66 210.149 200.596 210.197L200.019 210.51C200.011 210.52 200.001 210.528 199.989 210.533C199.977 210.539 199.965 210.541 199.952 210.541C199.939 210.541 199.926 210.539 199.914 210.533C199.903 210.528 199.892 210.52 199.884 210.51C199.834 210.451 199.81 210.375 199.817 210.298V204.333C199.816 204.237 199.839 204.142 199.884 204.056C199.912 203.985 199.958 203.921 200.019 203.872L200.596 203.559C200.616 203.541 200.642 203.531 200.668 203.531C200.695 203.531 200.721 203.541 200.741 203.559C200.784 203.618 200.804 203.689 200.798 203.761V209.745Z" fill="#FAFAFA"/>
<path d="M205.858 206.933C205.858 207.028 205.838 207.122 205.801 207.21C205.774 207.282 205.723 207.343 205.656 207.385L205.079 207.708C205.061 207.724 205.037 207.734 205.012 207.734C204.987 207.734 204.962 207.724 204.944 207.708C204.894 207.648 204.87 207.572 204.877 207.496V204.25C204.907 203.867 204.834 203.483 204.665 203.134C204.531 202.904 204.319 202.867 204.021 203.033C203.724 203.225 203.503 203.508 203.396 203.835C203.235 204.27 203.157 204.729 203.165 205.191V208.445C203.164 208.54 203.145 208.634 203.107 208.722C203.083 208.798 203.032 208.863 202.963 208.906L202.395 209.22C202.386 209.229 202.375 209.237 202.363 209.243C202.35 209.248 202.337 209.251 202.323 209.251C202.309 209.251 202.296 209.248 202.283 209.243C202.271 209.237 202.26 209.229 202.251 209.22C202.206 209.161 202.186 209.089 202.193 209.017V203.051C202.192 202.956 202.211 202.862 202.251 202.775C202.274 202.699 202.326 202.633 202.395 202.59L202.963 202.277C202.972 202.267 202.983 202.259 202.995 202.254C203.008 202.249 203.021 202.246 203.035 202.246C203.049 202.246 203.062 202.249 203.074 202.254C203.087 202.259 203.098 202.267 203.107 202.277C203.15 202.34 203.17 202.414 203.165 202.489V202.775C203.291 202.494 203.446 202.225 203.627 201.973C203.785 201.74 203.999 201.547 204.252 201.41C204.471 201.257 204.743 201.191 205.012 201.226C205.118 201.252 205.218 201.299 205.304 201.364C205.39 201.429 205.461 201.511 205.512 201.604C205.652 201.854 205.743 202.125 205.781 202.406C205.833 202.773 205.858 203.142 205.858 203.512V206.933Z" fill="#FAFAFA"/>
<path d="M254.382 180.094L245.041 185.257L246.493 172.699C245.368 172.128 244.656 170.735 244.656 168.735C244.656 165.167 246.926 161.027 249.716 159.515C252.506 158.003 254.766 159.607 254.766 163.203C254.709 165.318 254.079 167.383 252.939 169.196L254.382 180.094Z" fill="#455A64"/>
<path d="M254.391 180.094L246.166 175.548L245.041 185.266L254.391 180.094Z" fill="#37474F"/>
<path d="M249.697 159.487C247.662 160.804 246.145 162.735 245.387 164.973L252.919 169.14C254.06 167.328 254.689 165.263 254.747 163.147C254.766 159.579 252.506 157.947 249.697 159.487Z" fill="#37474F"/>
<path d="M204.29 117.674C201.087 115.904 196.671 116.153 191.784 118.854C182.03 124.257 174.122 137.377 174.122 148.174C174.122 153.595 176.123 157.394 179.336 159.146L185.56 162.613C188.754 164.383 193.17 164.125 198.066 161.423C207.821 156.029 215.728 142.9 215.728 132.104C215.728 126.71 213.747 122.884 210.553 121.159" fill="#BA68C8"/>
<path d="M198.056 122.33C188.302 127.733 180.394 140.863 180.394 151.65C180.394 162.437 188.302 166.826 198.056 161.423C207.811 156.02 215.728 142.9 215.719 132.104C215.709 121.307 207.802 116.937 198.056 122.33Z" fill="#BA68C8"/>
<path d="M207.802 146.284V147.519C205.465 151.517 202.113 154.885 198.057 157.311C194.257 159.404 190.822 159.635 188.302 158.298V155.753C188.431 153.105 189.22 150.526 190.602 148.231C191.985 145.935 193.921 143.99 196.248 142.559L198.817 141.139C201.087 139.885 203.299 139.719 205.031 140.687C206.763 141.656 207.802 143.693 207.802 146.284Z" fill="#BA68C8"/>
<path opacity="0.4" d="M204.29 117.674L210.543 121.159C207.349 119.38 202.934 119.629 198.037 122.33C191.65 125.871 186.051 132.721 182.953 140.06L176.69 136.585C179.798 129.209 185.348 122.395 191.775 118.854C196.681 116.162 201.096 115.904 204.29 117.674Z" fill="white"/>
<path opacity="0.2" d="M185.339 162.474L179.346 159.146C176.133 157.394 174.132 153.614 174.132 148.174L180.394 151.659C180.433 156.915 182.28 160.658 185.339 162.474Z" fill="black"/>
<path opacity="0.1" d="M176.71 136.585L182.972 140.06C181.368 143.735 180.506 147.668 180.433 151.65L174.17 148.165C174.247 144.186 175.109 140.257 176.71 136.585Z" fill="black"/>
<path d="M195.825 140.558C195.228 140.565 194.64 140.418 194.122 140.134C193.497 139.735 192.997 139.182 192.674 138.533C192.35 137.883 192.216 137.163 192.285 136.446C192.366 134.766 192.866 133.13 193.743 131.673C194.62 130.217 195.849 128.983 197.325 128.074C197.919 127.621 198.641 127.349 199.398 127.295C200.155 127.241 200.911 127.407 201.568 127.771C202.225 128.136 202.752 128.682 203.079 129.338C203.407 129.994 203.521 130.73 203.405 131.449C203.322 133.128 202.821 134.765 201.944 136.221C201.067 137.677 199.84 138.911 198.364 139.821C197.601 140.278 196.724 140.532 195.825 140.558Z" fill="white"/>
<path d="M205.031 140.678C203.299 139.71 201.087 139.876 198.817 141.13L196.248 142.55C193.919 143.982 191.982 145.928 190.6 148.225C189.217 150.523 188.429 153.104 188.302 155.753V158.307C190.822 159.644 194.257 159.413 198.057 157.32C202.113 154.894 205.465 151.527 207.802 147.529V146.293C207.802 143.693 206.801 141.656 205.031 140.678Z" fill="white"/>
<path d="M377.187 255.547C378.613 257.38 379.476 259.558 379.679 261.835C378.259 260 377.396 257.824 377.187 255.547ZM391.203 255.722C389.174 242.492 381.756 229.409 372.925 224.513C368.683 222.162 364.758 222.079 361.612 223.84L355.936 226.975L355.619 227.159C355.366 227.292 355.122 227.44 354.888 227.602C354.422 227.909 353.984 228.255 353.579 228.634L353.387 228.809C353.214 228.975 353.031 229.169 352.868 229.353C352.704 229.538 352.454 229.824 352.262 230.072C351.853 230.588 351.484 231.13 351.155 231.695C350.982 231.981 350.819 232.285 350.665 232.617L301.093 205.197L295.071 208.525V212.213L295.581 212.49L296.062 212.757V213.495L295.1 214.039V216.178L302.382 230.93L309.578 234.922L311.973 232.156L318.322 235.798L321.968 241.782L325.989 244.004L331.021 239.726L337.197 243.146L339.275 251.361L349.655 257.115C350.168 259.206 350.81 261.265 351.579 263.283C351.646 263.486 351.732 263.698 351.819 263.928C355.263 272.595 360.737 280.017 366.913 283.438C367.653 283.859 368.429 284.219 369.231 284.517C369.656 284.678 370.089 284.817 370.53 284.931C370.915 285.03 371.3 285.113 371.684 285.18C372.899 285.393 374.144 285.393 375.359 285.18L375.859 285.061C376.099 285.014 376.333 284.95 376.562 284.867L377.1 284.664C377.291 284.598 377.475 284.515 377.649 284.415C377.827 284.341 378 284.258 378.168 284.166L378.418 284.019C378.464 284.004 378.506 283.983 378.543 283.954C379.919 283.198 383.305 281.317 384.229 280.819C388.808 278.275 391.771 271.839 391.771 262.739C391.763 260.39 391.573 258.045 391.203 255.722Z" fill="#BA68C8"/>
<path d="M375.475 264.731C373.089 263.413 371.165 259.503 371.165 256C371.165 252.496 373.089 250.717 375.475 252.026C377.86 253.335 379.775 257.254 379.775 260.767C379.775 264.279 377.851 266.05 375.475 264.731ZM385.22 257.069C383.199 243.848 375.782 230.755 366.942 225.869C362.844 223.601 359.053 223.435 355.975 224.993L355.657 225.177C355.405 225.311 355.161 225.459 354.926 225.62C354.46 225.927 354.022 226.273 353.618 226.653L353.426 226.828C353.252 226.994 353.07 227.187 352.906 227.372C352.743 227.556 352.492 227.842 352.3 228.091C351.892 228.606 351.522 229.148 351.194 229.714C351.021 229.999 350.857 230.304 350.703 230.636C349.806 232.418 349.159 234.306 348.779 236.251L295.109 206.544V210.232L295.619 210.508L296.1 210.776V211.513L295.138 212.057V214.196L302.42 228.948L309.616 232.941L312.011 230.175L318.361 233.817L322.007 239.8L326.028 242.022L331.059 237.744L337.235 241.165L339.313 249.38L349.703 255.133C350.216 257.224 350.858 259.284 351.627 261.301C351.694 261.504 351.781 261.716 351.867 261.947C355.311 270.614 360.785 278.036 366.961 281.456C367.701 281.877 368.477 282.238 369.279 282.535C369.704 282.697 370.137 282.835 370.578 282.95C370.963 283.048 371.348 283.131 371.732 283.199C372.947 283.411 374.192 283.411 375.407 283.199L375.908 283.079C376.147 283.033 376.382 282.968 376.61 282.885L377.148 282.683C377.339 282.617 377.523 282.533 377.697 282.434C377.875 282.36 378.048 282.277 378.216 282.185L378.466 282.037C378.512 282.023 378.554 282.001 378.591 281.973C382.978 279.317 385.797 272.974 385.797 264.095C385.781 261.743 385.588 259.395 385.22 257.069Z" fill="#BA68C8"/>
<path opacity="0.4" d="M379.775 260.757C379.775 264.27 377.851 266.05 375.475 264.731C373.099 263.413 371.165 259.513 371.165 256C371.165 252.487 373.089 250.708 375.475 252.026C376.162 252.427 376.76 252.953 377.235 253.575C377.442 255.852 378.305 258.029 379.727 259.863C379.762 260.16 379.778 260.459 379.775 260.757Z" fill="black"/>
<path opacity="0.4" d="M391.8 260.748C391.8 269.848 388.837 276.284 384.258 278.829C383.296 279.326 379.948 281.207 378.572 281.963C382.959 279.308 385.778 272.965 385.778 264.086C385.767 261.737 385.581 259.392 385.22 257.069C383.199 243.848 375.782 230.755 366.942 225.869C362.844 223.601 359.053 223.435 355.975 224.993L361.651 221.858C364.796 220.097 368.721 220.18 372.964 222.531C381.805 227.427 389.222 240.51 391.242 253.741C391.608 256.06 391.795 258.402 391.8 260.748Z" fill="white"/>
<path opacity="0.1" d="M385.778 264.067C385.778 272.946 382.959 279.29 378.572 281.945C379.948 281.189 383.334 279.308 384.258 278.81C388.837 276.265 391.8 269.83 391.8 260.73C391.8 260.398 391.8 260.057 391.8 259.716L385.778 263.053C385.768 263.413 385.778 263.745 385.778 264.067Z" fill="black"/>
<path opacity="0.15" d="M349.01 240.796V241.893L295.119 212.076L296.11 211.523V211.513L349.01 240.796Z" fill="black"/>
<path opacity="0.15" d="M372.444 278.819C370.402 278.768 368.41 278.199 366.672 277.169C357.889 272.31 350.742 257.853 350.742 244.945C350.742 237.412 353.118 231.788 357.264 229.492C360.15 227.888 363.565 228.091 367.153 230.073C375.927 234.932 383.074 249.435 383.074 262.343C383.074 269.867 380.698 275.5 376.552 277.787C375.301 278.471 373.885 278.827 372.444 278.819ZM361.429 229.354C360.147 229.347 358.886 229.665 357.774 230.276C353.993 232.369 351.732 237.855 351.732 244.936C351.732 257.549 358.659 271.674 367.182 276.358C370.443 278.202 373.531 278.368 376.1 276.948C379.881 274.855 382.141 269.378 382.141 262.297C382.141 249.675 375.215 235.559 366.701 230.866C365.11 229.938 363.292 229.429 361.429 229.391V229.354Z" fill="black"/>
<path opacity="0.4" d="M350.665 230.617C349.768 232.399 349.121 234.287 348.741 236.232L295.071 206.525L301.093 203.197L350.665 230.617Z" fill="white"/>
</svg>
