<svg data-v-423bf9ae="" xmlns="http://www.w3.org/2000/svg" viewBox="0 0 417 99" class="iconLeft"><!----><!----><!----><g data-v-423bf9ae="" id="1c9b060e-3bf2-451a-8200-9cc6dc291487" fill="white" transform="matrix(4.285714577655423,0,0,4.285714577655423,117.57780653815965,7.088889701025785)"><path d="M9.83 13.30L10.82 13.30L10.58 3.15L5.88 11.30L4.34 3.15L0.14 13.30L1.15 13.30L3.93 6.52L5.38 13.86L9.66 6.52ZM17.65 10.19C17.54 10.79 17.21 11.33 16.69 11.76C16.17 12.19 15.60 12.42 14.98 12.42C14.36 12.42 13.87 12.19 13.52 11.76C13.17 11.33 13.06 10.79 13.17 10.19C13.30 9.58 13.62 9.04 14.14 8.61C14.66 8.18 15.23 7.95 15.85 7.95C16.46 7.95 16.95 8.18 17.30 8.61C17.65 9.04 17.78 9.58 17.65 10.19ZM18.63 10.19C18.80 9.31 18.63 8.55 18.13 7.92C17.63 7.29 16.93 6.97 16.04 6.97C15.16 6.97 14.34 7.29 13.58 7.92C12.82 8.55 12.36 9.31 12.19 10.19C12.03 11.09 12.19 11.84 12.70 12.46C13.22 13.09 13.92 13.40 14.80 13.40C15.68 13.40 16.49 13.09 17.25 12.46C18.00 11.84 18.47 11.09 18.63 10.19ZM23.97 13.30L24.95 13.30L25.69 9.45C25.83 8.74 25.76 8.16 25.47 7.73C25.33 7.50 25.14 7.32 24.89 7.20C24.64 7.07 24.29 7.01 23.86 7.01C23.42 7.01 23.02 7.14 22.64 7.36C22.27 7.57 21.95 7.85 21.69 8.20L21.90 7.14L20.92 7.14L19.71 13.30L20.69 13.30L21.20 10.72C21.35 9.94 21.62 9.31 21.99 8.85C22.20 8.60 22.46 8.39 22.75 8.23C23.04 8.08 23.41 7.99 23.83 7.99C24.25 7.99 24.51 8.15 24.64 8.43C24.77 8.71 24.79 9.04 24.71 9.45ZM33.57 10.64C33.70 9.97 33.64 9.41 33.40 8.96C33.17 8.51 32.79 8.20 32.26 8.05C32.62 7.90 32.94 7.64 33.22 7.28C33.35 7.11 33.46 6.94 33.54 6.76C33.63 6.58 33.71 6.33 33.77 6.01C33.82 5.68 33.81 5.38 33.73 5.07C33.47 4.21 32.66 3.78 31.26 3.78L28.69 3.78L26.84 13.30L29.75 13.30C30.72 13.30 31.53 13.09 32.20 12.64C32.55 12.42 32.83 12.11 33.08 11.76C33.33 11.41 33.50 11.03 33.57 10.64ZM32.76 6.16C32.66 6.68 32.42 7.06 32.07 7.31C31.72 7.56 31.29 7.69 30.79 7.69L28.91 7.69L29.48 4.72L31.08 4.72C32.38 4.72 32.94 5.19 32.76 6.16ZM32.62 10.46C32.51 11.02 32.24 11.48 31.78 11.84C31.33 12.19 30.81 12.36 30.21 12.36L28 12.36L28.71 8.67L31.08 8.67C31.58 8.67 31.99 8.83 32.30 9.17C32.44 9.32 32.54 9.51 32.61 9.72C32.68 9.93 32.68 10.18 32.62 10.46ZM38.85 12.25L38.64 13.30L39.62 13.30L40.82 7.14L39.84 7.14L39.34 9.72C39.17 10.57 38.88 11.24 38.47 11.72C38.07 12.19 37.48 12.45 36.71 12.45C36.29 12.45 36.01 12.31 35.88 12.03C35.76 11.75 35.73 11.40 35.81 10.99L36.57 7.14L35.59 7.14L34.83 10.99C34.69 11.70 34.78 12.29 35.07 12.74C35.36 13.19 35.87 13.43 36.55 13.43C37.46 13.43 38.23 13.03 38.85 12.25ZM47.01 10.22C46.90 10.82 46.58 11.34 46.07 11.79C45.57 12.24 45.02 12.46 44.41 12.46C43.79 12.46 43.32 12.24 42.98 11.79C42.66 11.34 42.56 10.82 42.67 10.22C42.78 9.62 43.09 9.10 43.60 8.65C44.10 8.20 44.66 7.98 45.28 7.98C45.89 7.98 46.35 8.20 46.69 8.65C47.01 9.10 47.12 9.62 47.01 10.22ZM47.39 13.30L49.43 2.80L48.45 2.80L47.40 8.19C47.36 8.12 47.31 8.05 47.26 7.98C46.82 7.32 46.16 7.00 45.30 7.00C44.45 7.00 43.68 7.32 42.97 7.98C42.28 8.61 41.86 9.37 41.69 10.22C41.52 11.07 41.65 11.83 42.10 12.46C42.55 13.12 43.20 13.44 44.06 13.44C44.91 13.44 45.68 13.12 46.40 12.46C46.47 12.39 46.55 12.32 46.62 12.25L46.41 13.30ZM55.08 10.22C54.96 10.82 54.64 11.34 54.14 11.79C53.63 12.24 53.09 12.46 52.47 12.46C51.87 12.46 51.39 12.24 51.06 11.79C50.72 11.35 50.62 10.82 50.74 10.22C50.85 9.62 51.17 9.09 51.67 8.65C52.19 8.20 52.74 7.98 53.34 7.98C53.96 7.98 54.42 8.20 54.75 8.65C55.08 9.10 55.19 9.62 55.08 10.22ZM49.95 14.14L48.94 14.14C48.92 14.80 49.11 15.37 49.50 15.86C50.01 16.49 50.69 16.80 51.58 16.80C52.46 16.80 53.27 16.49 54.01 15.86C54.75 15.23 55.23 14.49 55.40 13.61L56.66 7.14L55.68 7.14L55.47 8.18C55.44 8.11 55.38 8.05 55.34 7.98C54.85 7.32 54.21 7.00 53.38 7.00C52.53 7.00 51.74 7.32 51.03 7.98C50.34 8.61 49.92 9.37 49.76 10.22C49.59 11.07 49.71 11.83 50.16 12.46C50.62 13.12 51.28 13.44 52.14 13.44C52.99 13.44 53.76 13.12 54.47 12.46C54.54 12.39 54.61 12.33 54.67 12.26L54.42 13.61C54.31 14.21 53.98 14.73 53.47 15.16C52.95 15.60 52.37 15.82 51.77 15.82C51.17 15.82 50.69 15.60 50.34 15.16C50.11 14.85 49.97 14.52 49.95 14.14ZM64.20 10.08C64.37 9.23 64.19 8.50 63.66 7.88C63.14 7.28 62.45 6.97 61.59 6.97C60.70 6.97 59.88 7.29 59.12 7.92C58.37 8.55 57.90 9.31 57.74 10.19C57.57 11.09 57.74 11.84 58.24 12.46C58.48 12.75 58.79 12.98 59.14 13.15C59.49 13.31 59.93 13.40 60.48 13.40C61.03 13.40 61.60 13.22 62.19 12.88C62.78 12.54 63.27 12.08 63.64 11.49L62.52 11.49C62.26 11.79 61.94 12.01 61.59 12.18C61.24 12.35 60.87 12.42 60.52 12.42C59.99 12.42 59.56 12.25 59.19 11.90C58.84 11.56 58.67 11.13 58.69 10.60L64.11 10.60ZM63.22 9.76L58.86 9.76C58.97 9.49 59.11 9.27 59.29 9.04C59.89 8.32 60.59 7.95 61.39 7.95C61.91 7.95 62.36 8.12 62.69 8.46C63.04 8.81 63.21 9.24 63.22 9.76ZM65.44 8.05L66.98 8.05L65.95 13.30L66.93 13.30L67.96 8.05L69.48 8.05L69.66 7.14L68.14 7.14L68.60 4.75L67.62 4.75L67.16 7.14L65.62 7.14Z"></path></g><!----><g data-v-423bf9ae="" id="f9a5f0f1-db35-4569-8c71-7e4d07123146" transform="matrix(1.0444444444444445,0,0,1.0444444444444445,-2.222234100765654,-2.2222222222222285)" stroke="none" fill="white"><path d="M47.999 71.895a2 2 0 0 0 4 0v-4.809h3.203c5.264 0 9.546-4.281 9.546-9.543 0-5.263-4.282-9.545-9.546-9.545h-3.203V36.914h9.472a2 2 0 0 0 0-4h-9.472v-4.812a2 2 0 0 0-4 0v4.812h-3.196c-5.265 0-9.547 4.281-9.547 9.543 0 5.261 4.282 9.541 9.547 9.541h3.196v11.088H37.256a2 2 0 0 0 0 4h10.743v4.809zm-3.196-34.981h3.196v11.084h-3.196a5.55 5.55 0 0 1-5.547-5.541 5.55 5.55 0 0 1 5.547-5.543zm10.399 26.172h-3.203V51.998h3.203a5.552 5.552 0 0 1 5.546 5.545 5.55 5.55 0 0 1-5.546 5.543zM10.238 25.66c0 .018.004.034.006.051.009.106.024.211.051.315.008.034.021.066.031.1.026.084.054.167.091.248.023.051.052.098.079.146.034.059.066.118.105.174.046.065.1.124.152.183.031.035.06.07.094.103.074.072.158.135.244.196.018.011.03.026.047.037.004.002.009.003.013.006.025.016.046.037.072.053l16.018 9.369a1.999 1.999 0 0 0 2.02-3.453l-14.162-8.284C23.183 13.661 36.07 7 49.999 7a2 2 0 0 0 0-4C34.01 3 19.263 11.018 10.55 24.447c-.17.262-.264.548-.3.839v.004a1.835 1.835 0 0 0-.012.37zM35.031 90.322C18.265 84.098 7 67.893 7 49.998c0-3.238.363-6.468 1.079-9.599a2.002 2.002 0 0 0-3.901-.892A47.19 47.19 0 0 0 3 49.998c0 19.559 12.312 37.271 30.639 44.074a2 2 0 1 0 1.392-3.75z"></path><path d="M68.494 6.785c-.009-.004-.016-.01-.024-.014-.011-.005-.022-.007-.034-.012-.048-.021-.095-.043-.143-.063a1.997 1.997 0 0 0-2.621 1.062 1.99 1.99 0 0 0-.144.625l-6.802 14.814a2 2 0 1 0 3.634 1.669l6.258-13.629A42.928 42.928 0 0 1 93 49.998C93 73.039 74.785 91.9 51.999 92.949V81.436a2 2 0 0 0-4 0V95a2 2 0 0 0 2 2C75.915 97 97 75.915 97 49.998A46.933 46.933 0 0 0 68.494 6.785z"></path></g><!----></svg>